<?xml version="1.0" encoding="UTF-8"?>
<svg width="1200pt" height="1200pt" version="1.1" viewBox="0 0 1200 1200" xmlns="http://www.w3.org/2000/svg">
 <g>
  <path d="m1089.7 687.52c2.0625-26.711-59.258-51.109-87.191-51.77-101.7-2.4609-203.35-4.9219-305.04-7.3789l-269.94-239.25-46.008 23.496 155.79 206.61c-97.766-1.2227-356.15 0.91016-388.51 0.13281-27.863-0.67188 148.34 92.496 193.48 100.73 0 0 365.46 10.957 527.38 14.867 41.641 1.0078 83.258 2.0039 124.87 3.0117 27.867 0.64844 92.941-21.457 95.184-50.438z"/>
  <path d="m138.74 485.58-33.672 14.246 38.906 102.28 109.4 0.73047z"/>
 </g>
</svg>
