<svg width="1600" height="1600" viewBox="0 0 1600 1600" fill="none" xmlns="http://www.w3.org/2000/svg">
<path d="M1452.93 916.693C1455.68 881.079 1373.92 848.548 1336.68 847.667C1201.08 844.385 1065.55 841.104 929.959 837.828L570.039 518.828L508.695 550.156L716.415 825.636C586.06 824.006 241.548 826.85 198.401 825.813C161.251 824.917 396.188 949.141 456.375 960.12C456.375 960.12 943.655 974.729 1159.55 979.943C1215.07 981.286 1270.56 982.614 1326.04 983.958C1363.2 984.823 1449.96 955.349 1452.95 916.708L1452.93 916.693Z" fill="#DCDEE3"/>
<path d="M184.987 647.44L140.091 666.435L191.965 802.808L337.832 803.782L184.987 647.44Z" fill="#DCDEE3"/>
</svg>
